<?xml version="1.0" encoding="utf-8"?>
<!-- Generator: Adobe Illustrator 24.1.2, SVG Export Plug-In . SVG Version: 6.00 Build 0)  -->
<svg version="1.1" id="圖層_1" xmlns="http://www.w3.org/2000/svg" xmlns:xlink="http://www.w3.org/1999/xlink" x="0px" y="0px"
	 viewBox="0 0 127.6 127.6" style="enable-background:new 0 0 127.6 127.6;" xml:space="preserve">
<style type="text/css">
	.st0{fill:#0068B7;}
</style>
<path class="st0" d="M95.3,4.4H32.5C17,4.4,4.4,17,4.4,32.6v62.8c0,15.5,12.6,28.1,28.1,28.1h62.8c15.5,0,28.1-12.6,28.1-28.1V32.6
	C123.4,17,110.8,4.4,95.3,4.4z M47.2,22.8h19.7c4.8,0,15.1,0.7,18.7,2.1c5.2,2,8.5,5.8,10,10.5c1,3.3,0.4,6.2-0.5,10
	c-1.1,5-5.3,14.2-7.6,18H68c1.9-2,7.2-13.2,7.2-16.2c0-2.4-0.8-4.3-2.3-5.7C71.3,40,69,39.3,66,39.3H42.4L47.2,22.8z M72.8,105
	c0,0-8.6-12.1-12.5-17.4c-3.8-5.4-5.9-8.7-9.6-12.2c-3.7-3.5-15.9-2.6-15.9-2.6h-8l5.2-16.7c0,0,7.8-0.3,17.5,0.2
	c11.7,0.5,17.1,7,21.6,12.6l29.7,36.3L72.8,105z"/>
</svg>
